<?xml version="1.0" encoding="UTF-8"?>
<svg xmlns="http://www.w3.org/2000/svg" id="Ebene_1" viewBox="0 0 254.43 71.14">
  <defs>
    <style>.cls-1{fill:#264555;}</style>
  </defs>
  <g>
    <path class="cls-1" d="M86.29,63.68c-1.05,0-2.11-.14-3.2-.41-1.09-.27-2.08-.77-2.98-1.49-.9-.72-1.63-1.75-2.18-3.08-.55-1.33-.83-3.05-.83-5.14s.28-3.8,.83-5.12c.55-1.32,1.28-2.35,2.18-3.08,.9-.73,1.9-1.24,2.98-1.51,1.09-.27,2.15-.41,3.2-.41s1.98,.09,2.96,.27c.98,.18,1.93,.46,2.85,.82v2.71c-.86-.37-1.75-.64-2.67-.83-.92-.18-1.86-.27-2.83-.27-2.33,0-4.02,.59-5.08,1.76-1.06,1.18-1.59,3.06-1.59,5.65s.53,4.51,1.59,5.67c1.06,1.16,2.75,1.75,5.08,1.75,.97,0,1.91-.09,2.83-.27,.91-.18,1.8-.46,2.67-.83v2.75c-.92,.34-1.87,.6-2.85,.79s-1.97,.27-2.96,.27"></path>
    <path class="cls-1" d="M105.4,61.37c1.6,0,2.84-.35,3.73-1.04,.89-.69,1.52-1.62,1.9-2.79,.38-1.16,.57-2.47,.57-3.91,0-1.54-.2-2.88-.59-4.02s-1.04-2.02-1.94-2.65c-.9-.63-2.13-.94-3.67-.94s-2.8,.34-3.69,1.02c-.89,.68-1.53,1.59-1.91,2.73-.38,1.14-.57,2.43-.57,3.87,0,2.3,.46,4.17,1.37,5.59,.92,1.43,2.51,2.14,4.79,2.14m.04,2.59c-3.06,0-5.33-.91-6.81-2.73-1.48-1.82-2.22-4.35-2.22-7.59s.78-5.95,2.34-7.65c1.56-1.7,3.76-2.55,6.61-2.55,2.12,0,3.85,.43,5.18,1.28,1.34,.85,2.32,2.04,2.94,3.57,.63,1.53,.94,3.32,.94,5.36,0,3.22-.78,5.74-2.34,7.57-1.56,1.83-3.77,2.75-6.65,2.75"></path>
    <path class="cls-1" d="M119.72,45.36c.63-.31,1.27-.59,1.94-.84,.67-.25,1.35-.45,2.04-.61,.69-.16,1.4-.27,2.12-.35,.72-.08,1.44-.12,2.18-.12,1.91,0,3.43,.28,4.55,.84,1.12,.56,1.94,1.38,2.45,2.45,.51,1.07,.77,2.37,.77,3.89v12.75h-2.83v-12.75c0-.47-.06-.97-.18-1.49s-.35-1.03-.69-1.51c-.34-.48-.86-.88-1.57-1.18-.71-.3-1.65-.45-2.83-.45-.81,0-1.65,.07-2.51,.2-.86,.13-1.74,.33-2.63,.59v16.6h-2.82v-18.01Z"></path>
    <path class="cls-1" d="M147.59,63.96c-1.41,0-2.6-.15-3.55-.43-.96-.29-1.94-.69-2.97-1.22v-2.98c.81,.45,1.53,.82,2.16,1.14,.63,.31,1.27,.54,1.92,.69,.65,.14,1.4,.22,2.24,.22,1.31,0,2.37-.29,3.2-.86,.82-.57,1.24-1.32,1.24-2.24,0-.73-.2-1.3-.61-1.69-.41-.39-.92-.72-1.55-.98-.63-.26-1.28-.54-1.96-.82-.76-.21-1.52-.44-2.3-.69-.77-.25-1.48-.57-2.12-.98-.64-.41-1.16-.93-1.55-1.57-.39-.64-.59-1.47-.59-2.49s.2-1.85,.61-2.55c.41-.71,.93-1.29,1.59-1.75,.65-.46,1.39-.79,2.2-1,.81-.21,1.62-.32,2.43-.32,1.18,0,2.18,.16,3.02,.47,.84,.31,1.7,.67,2.59,1.06v2.83c-1-.52-1.88-.95-2.67-1.28-.78-.33-1.71-.49-2.79-.49s-2.04,.22-2.89,.65c-.85,.43-1.27,1.09-1.27,1.98,0,.73,.21,1.31,.65,1.75,.43,.43,1,.77,1.71,1.02,.71,.25,1.47,.49,2.28,.73,.65,.21,1.34,.44,2.04,.69,.71,.25,1.36,.58,1.96,.98,.6,.41,1.09,.94,1.47,1.59,.38,.66,.57,1.49,.57,2.51,0,1.39-.35,2.53-1.06,3.43-.71,.9-1.6,1.56-2.69,1.98-1.09,.42-2.19,.63-3.32,.63"></path>
    <path class="cls-1" d="M168.15,63.96c-1.73,0-3.21-.3-4.43-.9-1.23-.6-2.17-1.48-2.81-2.63-.64-1.15-.96-2.56-.96-4.24v-12.4h2.82v11.77c0,1.99,.44,3.45,1.31,4.38,.88,.93,2.23,1.39,4.06,1.39s3.19-.46,4.06-1.39c.87-.93,1.31-2.39,1.31-4.38v-11.77h2.82v12.4c0,2.49-.71,4.4-2.14,5.75-1.43,1.35-3.45,2.02-6.06,2.02"></path>
  </g>
  <rect class="cls-1" x="182.64" y="36.33" width="2.82" height="27.04"></rect>
  <path class="cls-1" d="M197.9,63.68c-1.39,0-2.55-.42-3.49-1.28-.94-.85-1.41-2.11-1.41-3.79v-12.24h-3.42v-2.59h3.42v-5.53h2.83v5.53h5.06v2.59h-5.06v11.34c0,1.1,.17,1.92,.51,2.47,.34,.55,1.04,.82,2.08,.82,.47,0,.93-.04,1.37-.14,.44-.09,.81-.2,1.1-.33v2.67c-.37,.13-.83,.24-1.39,.33-.56,.09-1.09,.14-1.59,.14"></path>
  <path class="cls-1" d="M206.14,43.79h2.83v19.58h-2.83v-19.58Zm-.16-6.59h3.14v3.1h-3.14v-3.1Z"></path>
  <g>
    <path class="cls-1" d="M215.41,45.36c.63-.31,1.27-.59,1.94-.84,.67-.25,1.35-.45,2.04-.61,.69-.16,1.4-.27,2.12-.35,.72-.08,1.44-.12,2.18-.12,1.91,0,3.43,.28,4.55,.84,1.12,.56,1.94,1.38,2.45,2.45,.51,1.07,.77,2.37,.77,3.89v12.75h-2.83v-12.75c0-.47-.06-.97-.18-1.49-.12-.52-.35-1.03-.69-1.51-.34-.48-.86-.88-1.57-1.18-.71-.3-1.65-.45-2.83-.45-.81,0-1.65,.07-2.51,.2-.86,.13-1.74,.33-2.63,.59v16.6h-2.82v-18.01Z"></path>
    <path class="cls-1" d="M245.7,61.37c.84,0,1.72-.11,2.65-.33,.93-.22,1.8-.57,2.61-1.04v-11.26c0-.73-.2-1.29-.61-1.67-.41-.38-.95-.64-1.63-.78-.68-.14-1.41-.22-2.2-.22-1.91,0-3.35,.37-4.32,1.12-.97,.75-1.62,1.73-1.96,2.96-.34,1.23-.51,2.55-.51,3.96,0,2.15,.46,3.89,1.37,5.24,.92,1.35,2.45,2.02,4.59,2.02m0,2.59c-2.01,0-3.68-.4-5-1.2-1.32-.8-2.31-1.94-2.96-3.41-.66-1.48-.98-3.22-.98-5.24,0-2.25,.3-4.07,.9-5.47,.6-1.4,1.38-2.47,2.34-3.22,.95-.75,2-1.26,3.14-1.53,1.14-.27,2.24-.41,3.32-.41,1.23,0,2.4,.16,3.51,.49,1.11,.33,2.03,.84,2.75,1.55,.72,.71,1.08,1.65,1.08,2.82v15.86c0,.78-.12,1.58-.35,2.39-.24,.81-.66,1.56-1.28,2.26s-1.48,1.25-2.59,1.67c-1.11,.42-2.55,.63-4.3,.63-1.13,0-2.16-.11-3.1-.31-.94-.21-1.77-.41-2.47-.59v-2.67c.42,.11,.9,.23,1.43,.37,.54,.14,1.13,.27,1.77,.37,.64,.1,1.33,.16,2.06,.16,1.78,0,3.09-.21,3.94-.65,.85-.43,1.41-.97,1.67-1.61,.26-.64,.39-1.29,.39-1.94v-2.87l.98,.98c-.5,.26-1.12,.51-1.88,.75-.76,.24-1.53,.43-2.32,.59-.78,.16-1.46,.24-2.04,.24"></path>
    <path class="cls-1" d="M91.11,30.95c-4.75,0-8.35-1.26-10.79-3.79-2.45-2.52-3.67-6.41-3.67-11.67s1.19-8.97,3.58-11.58C82.61,1.31,86.24,0,91.11,0c1.58,0,3.16,.2,4.75,.58,1.58,.39,3.12,.92,4.61,1.61V7.57c-1.49-.96-2.96-1.64-4.41-2.06-1.45-.42-2.83-.63-4.15-.63-1.97,0-3.62,.35-4.95,1.05-1.33,.7-2.33,1.83-3,3.38-.67,1.55-1.01,3.63-1.01,6.23s.33,4.62,1.01,6.16c.67,1.54,1.69,2.65,3.05,3.34,1.36,.69,3.07,1.03,5.13,1.03,1.22,0,2.55-.2,3.97-.6,1.42-.4,2.87-1.07,4.37-1.99v5.38c-.87,.42-1.82,.79-2.87,1.12-1.04,.33-2.13,.58-3.25,.74-1.12,.16-2.2,.25-3.25,.25"></path>
    <path class="cls-1" d="M142.66,15.27h5.78c1.04,0,1.9-.12,2.58-.36,.67-.24,1.2-.59,1.59-1.05,.39-.46,.66-.98,.83-1.54,.16-.57,.25-1.18,.25-1.84s-.08-1.33-.25-1.93c-.16-.6-.44-1.13-.83-1.61-.39-.48-.92-.84-1.59-1.1-.67-.25-1.53-.38-2.58-.38h-5.78V15.27Zm0,4.93v10.26h-6.09V.58h12.63c3.46,0,6.16,.79,8.08,2.37,1.93,1.58,2.89,3.99,2.89,7.21s-.96,5.7-2.89,7.44c-1.92,1.73-4.62,2.6-8.08,2.6h-6.54Z"></path>
  </g>
  <polygon class="cls-1" points="121.57 .58 114.98 .58 103.51 30.46 109.43 30.46 111.95 23.16 119.89 23.16 118.3 18.5 113.57 18.5 117.77 6.36 121.11 15.88 121.11 15.88 121.24 16.27 122.03 18.5 122.01 18.5 123.6 23.16 123.66 23.16 126.22 30.46 132.54 30.46 121.57 .58"></polygon>
  <g>
    <rect class="cls-1" x="13.81" y=".52" width="12.71" height="12.71" rx="1.44" ry="1.44"></rect>
    <rect class="cls-1" x=".76" y="26.17" width="11" height="11" rx="1.44" ry="1.44"></rect>
    <rect class="cls-1" x="52.05" y="37.39" width="11" height="11" rx="1.44" ry="1.44"></rect>
    <rect class="cls-1" x="24.11" y="52.61" width="10.43" height="10.43" rx="1.44" ry="1.44"></rect>
    <path class="cls-1" d="M63.05,1.96c0-.79-.65-1.44-1.44-1.44h-27.65c-.79,0-1.44,.65-1.44,1.44V22.98c0,.79-.65,1.44-1.44,1.44h-10.25c-.79,0-1.44,.65-1.44,1.44v16.77c0,.79,.65,1.44,1.44,1.44h16.77c.79,0,1.44-.65,1.44-1.44v-10.13c0-.79,.65-1.44,1.44-1.44h21.13c.79,0,1.44-.65,1.44-1.44V1.96Z"></path>
  </g>
</svg>
